# xmcd
#
# Track frame offsets: 
#        150
#        16877
#        31725
#        52673
#
# Disc length: 909 seconds
#
# Revision: 4
# Processed by: cddbd v1.5.2PL0 Copyright (c) Steve Scherf et al.
# Submitted via: ExactAudioCopy v0.99pb5
#
DISCID=1d038b04
DTITLE=De La Soul - 4 More (Maxi)
DYEAR=1996
DGENRE=
TTITLE0=4 More Featuring Zhane (Clean Version)
TTITLE1=Baby Baby Baby Baby Ooh Baby (New LP Version)
TTITLE2=Itzsoweezee (De La Soul Remix)
TTITLE3=Sweet Dreams (Clean Version)
EXTD=
EXTT0=
EXTT1=
EXTT2=
EXTT3=
PLAYORDER=
